<?xml version="1.0" encoding="UTF-8" standalone="no"?>
<svg
   xmlns:dc="http://purl.org/dc/elements/1.1/"
   xmlns:cc="http://creativecommons.org/ns#"
   xmlns:rdf="http://www.w3.org/1999/02/22-rdf-syntax-ns#"
   xmlns:svg="http://www.w3.org/2000/svg"
   xmlns="http://www.w3.org/2000/svg"
   viewBox="0 0 226.85333 208.8"
   height="208.8"
   width="226.85333"
   xml:space="preserve"
   id="svg2"
   version="1.1"><metadata
     id="metadata8"><rdf:RDF><cc:Work
         rdf:about=""><dc:format>image/svg+xml</dc:format><dc:type
           rdf:resource="http://purl.org/dc/dcmitype/StillImage" /></cc:Work></rdf:RDF></metadata><defs
     id="defs6" /><g
     transform="matrix(1.3333333,0,0,-1.3333333,0,208.8)"
     id="g10"><g
       transform="scale(0.1)"
       id="g12"><path
         id="path14"
         style="fill:#f68b22;fill-opacity:1;fill-rule:evenodd;stroke:none"
         d="M 21.3398,1566.04 H 781.34 c 11.031,0 20,-8.95 20,-20 V 486.039 c 0,-11.039 -8.969,-20 -20,-20 H 21.3398 c -11.0585,0 -20.00386,8.961 -20.00386,20 V 1546.04 c 0,11.05 8.94536,20 20.00386,20" /><path
         id="path16"
         style="fill:#ffffff;fill-opacity:1;fill-rule:nonzero;stroke:none"
         d="m 351.34,916.039 h 100 l -50,300.001 z m -150,-250 150,700.001 h 100 l 150,-700.001 h -100 l -37.5,175 h -125 l -37.5,-175 h -100" /><path
         id="path18"
         style="fill:#f68b22;fill-opacity:1;fill-rule:evenodd;stroke:none"
         d="m 920.359,1566.04 h 760.001 c 11.06,0 20,-8.95 20,-20 V 486.039 c 0,-11.039 -8.94,-20 -20,-20 H 920.359 c -11.035,0 -20,8.961 -20,20 V 1546.04 c 0,11.05 8.965,20 20,20" /><path
         id="path20"
         style="fill:#ffffff;fill-opacity:1;fill-rule:nonzero;stroke:none"
         d="m 1125.36,666.039 -124.99,700.001 h 99.99 l 50,-325 25.39,-200.001 24.61,200.001 50,325 h 100 l 50,-325 24.61,-200.001 25.39,200.001 50,325 h 100 l -125,-700.001 h -100 l -50,325 -25,200.001 -25,-200.001 -50,-325 h -100" /><path
         id="path22"
         style="fill:#f68b22;fill-opacity:1;fill-rule:nonzero;stroke:none"
         d="M 39.2109,87.1719 H 93.7031 L 66.3086,240.66 Z M 23.1641,4.08203 H 0 L 51.4648,264.582 H 81.4453 L 132.91,4.08203 H 109.59 L 96.582,71.8906 H 36.4844 L 23.1641,4.08203" /><path
         id="path24"
         style="fill:#f68b22;fill-opacity:1;fill-rule:nonzero;stroke:none"
         d="M 162.117,4.08203 V 264.582 h 91.574 v -18.473 h -68.562 v -98.687 h 53.887 v -17.41 H 185.129 V 4.08203 h -23.012" /><path
         id="path26"
         style="fill:#f68b22;fill-opacity:1;fill-rule:nonzero;stroke:none"
         d="M 296.68,4.08203 V 246.109 h -50.703 v 18.473 H 370.859 V 246.109 H 319.688 V 4.08203 H 296.68" /><path
         id="path28"
         style="fill:#f68b22;fill-opacity:1;fill-rule:nonzero;stroke:none"
         d="M 387.512,4.08203 V 264.582 h 90.816 V 246.109 H 410.52 v -98.687 h 48.433 v -17.41 H 410.52 V 22.5391 h 67.808 V 4.08203 h -90.816" /><path
         id="path30"
         style="fill:#f68b22;fill-opacity:1;fill-rule:nonzero;stroke:none"
         d="m 530.852,149.691 h 46.316 c 6.562,0 12.109,1.309 16.648,3.938 4.543,2.621 7.954,6.359 10.215,11.203 2.278,4.84 3.86,9.879 4.778,15.137 0.898,5.242 1.359,11.25 1.359,18 0,5.551 -0.285,10.551 -0.832,14.992 -0.559,4.437 -1.57,8.777 -3.027,13.019 -1.465,4.239 -3.411,7.79 -5.829,10.68 -2.421,2.871 -5.597,5.16 -9.542,6.879 -3.926,1.711 -8.528,2.57 -13.77,2.57 H 530.852 Z M 507.844,4.08203 V 264.582 h 69.48 c 8.77,0 16.492,-1.223 23.156,-3.641 6.661,-2.421 12.032,-5.621 16.122,-9.609 4.082,-3.98 7.39,-8.922 9.914,-14.832 2.515,-5.898 4.254,-12.012 5.222,-18.309 0.957,-6.312 1.438,-13.3 1.438,-20.972 0,-33.199 -12.113,-54.25 -36.328,-63.117 L 637.109,4.08203 H 612.59 L 574.59,131.23 H 530.852 V 4.08203 h -23.008" /><path
         id="path32"
         style="fill:#f68b22;fill-opacity:1;fill-rule:nonzero;stroke:none"
         d="m 664.961,71.8906 v 17.3985 h 47.375 V 71.8906 h -47.375" /><path
         id="path34"
         style="fill:#f68b22;fill-opacity:1;fill-rule:nonzero;stroke:none"
         d="M 774.844,4.08203 731.25,264.582 h 21.504 L 788.32,41.7617 821.926,264.582 h 29.207 l 30.73,-222.8203 35.422,222.8203 h 21.348 L 895.332,4.08203 H 868.848 L 836.309,234.16 801.191,4.08203 h -26.347" /><path
         id="path36"
         style="fill:#f68b22;fill-opacity:1;fill-rule:nonzero;stroke:none"
         d="M 1069.26,74.4609 V 193.891 c 0,37.238 -14.48,55.847 -43.44,55.847 -28.965,0 -43.449,-18.609 -43.449,-55.847 V 74.4609 c 0,-37.3398 14.484,-56.0117 43.449,-56.0117 28.96,0 43.44,18.6719 43.44,56.0117 z M 959.363,79.6016 V 188.75 c 0,9.172 0.688,17.602 2.043,25.27 1.367,7.66 3.66,14.91 6.895,21.73 3.222,6.801 7.312,12.559 12.258,17.25 4.937,4.691 11.25,8.398 18.914,11.129 7.677,2.723 16.457,4.082 26.347,4.082 9.88,0 18.66,-1.359 26.33,-4.082 7.67,-2.731 13.98,-6.438 18.92,-11.129 4.95,-4.691 9.04,-10.449 12.27,-17.25 3.22,-6.82 5.52,-14.07 6.88,-21.73 1.36,-7.668 2.05,-16.098 2.05,-25.27 V 79.6016 C 1092.27,26.5313 1070.12,0 1025.82,0 981.516,0 959.363,26.5313 959.363,79.6016" /><path
         id="path38"
         style="fill:#f68b22;fill-opacity:1;fill-rule:nonzero;stroke:none"
         d="m 1154.64,149.691 h 46.32 c 6.56,0 12.11,1.309 16.65,3.938 4.54,2.621 7.95,6.359 10.21,11.203 2.28,4.84 3.86,9.879 4.78,15.137 0.9,5.242 1.36,11.25 1.36,18 0,5.551 -0.29,10.551 -0.83,14.992 -0.56,4.437 -1.58,8.777 -3.03,13.019 -1.47,4.239 -3.41,7.79 -5.83,10.68 -2.42,2.871 -5.6,5.16 -9.54,6.879 -3.93,1.711 -8.53,2.57 -13.77,2.57 h -46.32 z M 1131.63,4.08203 V 264.582 h 69.48 c 8.77,0 16.5,-1.223 23.16,-3.641 6.66,-2.421 12.03,-5.621 16.12,-9.609 4.08,-3.98 7.39,-8.922 9.91,-14.832 2.52,-5.898 4.26,-12.012 5.23,-18.309 0.95,-6.312 1.43,-13.3 1.43,-20.972 0,-33.199 -12.11,-54.25 -36.33,-63.117 L 1260.9,4.08203 h -24.52 l -38,127.14797 h -43.74 V 4.08203 h -23.01" /><path
         id="path40"
         style="fill:#f68b22;fill-opacity:1;fill-rule:nonzero;stroke:none"
         d="M 1293.13,4.08203 V 264.582 h 23.01 V 127.59 l 69.49,136.992 h 23.75 L 1355.5,157.102 1421.64,4.08203 h -24.36 L 1341.57,141.66 1316.14,95.9492 V 4.08203 h -23.01" /><path
         id="path42"
         style="fill:#f68b22;fill-opacity:1;fill-rule:nonzero;stroke:none"
         d="M 1436.93,4.08203 V 31.1719 h 27.86 V 4.08203 h -27.86" /><path
         id="path44"
         style="fill:#f68b22;fill-opacity:1;fill-rule:nonzero;stroke:none"
         d="M 1481.44,4.08203 V 21.4805 c 5.14,0 9.13,0.0312 11.95,0.0781 2.83,0.0508 5.83,0.3203 9.01,0.832 3.18,0.5078 5.5,1.0782 6.97,1.75 1.45,0.6485 3.02,1.8282 4.68,3.5508 1.67,1.707 2.78,3.5078 3.33,5.3672 0.56,1.8711 1.12,4.543 1.67,8.0312 0.55,3.4805 0.88,7.0586 0.98,10.7383 0.11,3.6836 0.16,8.4532 0.16,14.3125 V 264.582 h 23 V 66.1406 c 0,-7.8711 -0.17,-14.3906 -0.52,-19.5312 -0.37,-5.1485 -1.12,-10.3008 -2.28,-15.4375 -1.16,-5.1524 -2.85,-9.211 -5.07,-12.1836 -2.21,-2.9766 -5.17,-5.6992 -8.86,-8.168 -3.68,-2.48827 -8.25,-4.21874 -13.7,-5.23046 -5.45,-1.00781 -11.9,-1.50781 -19.37,-1.50781 h -11.95" /><path
         id="path46"
         style="fill:#f68b22;fill-opacity:1;fill-rule:nonzero;stroke:none"
         d="m 1575.59,66.8906 20.28,5.9102 c 0.81,-7.2695 2.25,-13.9922 4.32,-20.1406 2.06,-6.1485 4.86,-11.8711 8.39,-17.1797 3.54,-5.2891 8.2,-9.461 14.01,-12.4922 5.8,-3.0195 12.38,-4.5391 19.75,-4.5391 11.8,0 20.94,3.2813 27.4,9.8516 6.45,6.5508 9.68,15.8398 9.68,27.8476 0,9.9922 -2.95,19.6211 -8.85,28.9024 -5.9,9.289 -14.61,19.9802 -26.12,32.0902 l -40.71,42.847 c -8.88,9.383 -15.69,18.16 -20.44,26.332 -4.74,8.18 -7.11,16.75 -7.11,25.739 0,17.05 5.61,30.671 16.8,40.863 11.21,10.187 25.58,15.289 43.14,15.289 17.05,0 30.78,-4.82 41.17,-14.461 10.4,-9.629 17.31,-23.641 20.75,-42 l 0.45,-2.422 -19.38,-6.047 -0.3,2.117 c -2.02,13.012 -6.69,23.661 -14.01,31.934 -7.31,8.27 -16.87,12.406 -28.68,12.406 -11.5,0 -20.66,-2.929 -27.47,-8.777 -6.81,-5.852 -10.22,-14.481 -10.22,-25.879 0,-6.863 1.84,-13.621 5.52,-20.281 3.69,-6.66 8.96,-13.731 15.83,-21.192 l 38.3,-41.629 c 1,-1.121 3.52,-3.859 7.55,-8.242 4.05,-4.398 6.69,-7.297 7.95,-8.718 1.26,-1.411 3.59,-4.141 6.97,-8.168 3.38,-4.032 5.7,-7.0903 6.96,-9.1528 1.26,-2.0703 3.06,-5 5.37,-8.7773 2.32,-3.793 3.92,-7.1016 4.78,-9.9219 0.85,-2.8203 1.69,-6.1016 2.49,-9.8398 0.81,-3.7383 1.21,-7.4219 1.21,-11.0508 0,-18.5586 -5.73,-32.8985 -17.18,-42.9883 C 1672.73,5.03125 1657.93,0 1639.77,0 c -9.29,0 -17.72,1.78125 -25.28,5.37109 -7.58,3.57032 -13.95,8.48831 -19.15,14.75001 -5.2,6.25 -9.44,13.3203 -12.71,21.1875 -3.28,7.8711 -5.63,16.4023 -7.04,25.582" /></g></g></svg>